<svg xmlns:dc="http://purl.org/dc/elements/1.1/" xmlns:cc="http://creativecommons.org/ns#" xmlns:rdf="http://www.w3.org/1999/02/22-rdf-syntax-ns#" xmlns:svg="http://www.w3.org/2000/svg" xmlns="http://www.w3.org/2000/svg" xmlns:sodipodi="http://sodipodi.sourceforge.net/DTD/sodipodi-0.dtd" xmlns:inkscape="http://www.inkscape.org/namespaces/inkscape" fill="#000000" version="1.1" x="0px" y="0px" viewBox="0 0 100 125"><path style="font-size:medium;font-style:normal;font-variant:normal;font-weight:normal;font-stretch:normal;text-indent:0;text-align:start;text-decoration:none;line-height:normal;letter-spacing:normal;word-spacing:normal;text-transform:none;direction:ltr;block-progression:tb;writing-mode:lr-tb;text-anchor:start;baseline-shift:baseline;opacity:1;color:#000000;fill:#000000;fill-opacity:1;stroke:none;stroke-width:6;marker:none;visibility:visible;display:inline;overflow:visible;enable-background:accumulate;font-family:Sans;-inkscape-font-specification:Sans" d="M 59 5 C 40.257855 5 25 20.257852 25 39 C 25 48.06241 28.569499 56.302252 34.375 62.40625 L 7.84375 89.90625 A 3.0055288 3.0055288 0 1 0 12.15625 94.09375 L 38.875 66.40625 C 44.513283 70.557838 51.482092 73 59 73 C 77.742148 73 93 57.742148 93 39 C 93 20.257852 77.742148 5 59 5 z M 59 11 C 74.499507 11 87 23.500493 87 39 C 87 54.499507 74.499507 67 59 67 C 43.500496 67 31 54.499507 31 39 C 31 23.500493 43.500496 11 59 11 z "/></svg>